<?xml version="1.0" standalone="no"?>
<!DOCTYPE svg PUBLIC "-//W3C//DTD SVG 20010904//EN"
 "http://www.w3.org/TR/2001/REC-SVG-20010904/DTD/svg10.dtd">
<svg version="1.0" xmlns="http://www.w3.org/2000/svg"
 width="1024.000000pt" height="1024.000000pt" viewBox="0 0 1024.000000 1024.000000"
 preserveAspectRatio="xMidYMid meet">
<metadata>
Created by potrace 1.14, written by Peter Selinger 2001-2017
</metadata>
<g transform="translate(0.000000,1024.000000) scale(0.100000,-0.100000)"
fill="#000000" stroke="none">
<path d="M6042 9542 c-16 -23 -60 -91 -98 -152 -64 -104 -199 -256 -252 -284
-9 -5 -29 -20 -43 -33 -45 -41 -164 -84 -270 -96 -82 -9 -109 -8 -185 7 -123
24 -183 54 -264 131 -71 70 -123 153 -134 219 l-7 39 -107 -8 c-59 -3 -113
-12 -120 -18 -10 -8 -12 -27 -8 -66 5 -57 44 -276 65 -367 6 -27 20 -105 32
-174 11 -69 26 -150 34 -180 8 -30 23 -109 35 -175 12 -66 26 -124 31 -130 6
-6 104 -9 267 -7 326 5 467 -7 712 -62 36 -7 99 -21 140 -30 181 -40 467 -152
580 -228 19 -12 47 -29 62 -37 32 -17 33 -18 48 -136 6 -49 17 -124 25 -165
16 -90 49 -349 65 -515 7 -66 21 -183 31 -259 10 -77 19 -141 19 -142 0 -1
-46 -17 -102 -34 -57 -17 -133 -43 -171 -56 -37 -14 -122 -45 -190 -69 -67
-23 -221 -77 -342 -120 -121 -42 -258 -88 -304 -101 -45 -13 -105 -31 -133
-40 -27 -9 -53 -12 -58 -8 -8 10 -39 70 -95 184 -49 99 -92 156 -173 230 -93
86 -163 125 -254 144 -101 21 -274 21 -352 0 -184 -49 -350 -176 -419 -322
-30 -63 -32 -73 -32 -182 0 -127 1 -129 82 -253 25 -37 54 -72 65 -78 11 -6
51 -34 88 -62 80 -60 153 -107 167 -107 6 0 41 -16 79 -35 38 -20 101 -45 139
-56 39 -12 111 -34 160 -49 50 -16 131 -38 180 -49 50 -12 110 -26 135 -32 25
-6 79 -19 120 -29 41 -11 129 -33 195 -49 283 -71 468 -121 479 -130 6 -5 73
-28 150 -51 76 -23 159 -53 184 -66 25 -13 52 -24 61 -24 18 0 183 -82 319
-158 51 -29 126 -80 165 -113 40 -34 79 -68 87 -74 20 -18 94 -93 156 -159 67
-72 195 -326 223 -441 51 -209 56 -247 56 -425 0 -104 -5 -193 -12 -220 -7
-25 -19 -75 -28 -111 -34 -145 -87 -271 -185 -439 -66 -113 -327 -398 -420
-459 -13 -9 -36 -27 -50 -40 -14 -12 -41 -31 -61 -41 -19 -10 -41 -26 -48 -34
-8 -9 -17 -16 -22 -16 -5 0 -51 -27 -101 -59 -133 -85 -395 -199 -590 -256
-31 -9 -64 -25 -73 -35 -17 -18 -16 -23 8 -88 14 -38 35 -127 46 -198 12 -71
26 -151 31 -179 5 -27 14 -86 21 -130 6 -44 15 -90 20 -103 5 -13 7 -28 4 -33
-3 -5 -1 -17 4 -28 6 -10 15 -52 22 -92 6 -41 22 -130 36 -199 14 -69 30 -150
35 -180 6 -30 15 -61 21 -68 11 -13 4 -25 -16 -28 -7 0 -68 -4 -137 -8 -69 -3
-302 -15 -518 -27 -268 -15 -397 -18 -404 -11 -5 5 -11 59 -13 118 -1 60 -12
161 -24 224 -19 99 -58 319 -74 415 -3 17 -15 84 -26 150 -12 66 -24 150 -27
187 -4 38 -13 73 -20 79 -7 5 -59 12 -116 15 -57 2 -187 9 -290 15 -104 6
-195 8 -204 5 -35 -13 -259 34 -439 93 -156 51 -217 79 -410 191 -22 13 -67
51 -100 84 -33 34 -102 97 -152 141 -119 103 -200 200 -269 321 -67 119 -81
169 -56 204 22 31 220 165 277 189 5 2 60 37 120 76 61 39 144 91 185 115 41
23 83 50 93 59 11 9 38 27 62 41 24 14 75 46 114 73 109 72 195 127 321 204
196 119 185 114 198 101 7 -7 12 -16 12 -20 0 -14 96 -204 119 -236 11 -17 21
-33 21 -36 0 -19 133 -175 187 -221 142 -117 272 -158 498 -158 181 1 245 14
420 85 28 11 59 25 70 31 87 46 134 74 158 94 16 12 33 23 37 23 13 0 83 97
112 155 39 78 50 133 45 226 -2 46 -6 93 -9 104 -3 11 -11 38 -17 60 -26 96
-148 238 -268 314 -77 48 -198 105 -286 135 -91 30 -402 97 -592 126 -38 6
-101 18 -140 27 -117 26 -136 30 -240 51 -200 42 -438 110 -595 171 -126 50
-321 158 -430 239 -252 187 -398 356 -553 642 -29 55 -90 231 -110 320 -73
323 -46 663 75 945 109 251 334 518 613 723 39 28 75 56 81 61 18 14 152 95
237 141 49 27 77 48 77 59 0 9 -9 59 -19 111 -11 52 -27 138 -36 190 -27 155
-57 294 -65 310 -4 8 -10 33 -13 55 -7 49 -33 150 -48 188 -13 30 -38 34 -119
16 -25 -5 -145 -27 -266 -48 -201 -35 -228 -42 -294 -77 -46 -25 -87 -57 -114
-88 -43 -52 -45 -55 -140 -213 -33 -54 -76 -120 -96 -148 -20 -27 -54 -79 -75
-115 -21 -36 -66 -108 -101 -160 -34 -52 -98 -153 -143 -225 -106 -169 -177
-278 -224 -344 -21 -29 -54 -81 -74 -115 -107 -188 -91 -176 -232 -176 -64 0
-171 7 -236 15 -204 25 -239 21 -298 -34 -53 -48 -62 -85 -87 -331 -14 -138
-65 -422 -96 -532 -13 -48 -24 -114 -24 -146 0 -56 3 -64 46 -121 26 -34 63
-75 83 -91 55 -45 189 -138 224 -157 48 -24 147 -115 147 -134 0 -10 12 -26
27 -37 l27 -19 -39 -109 c-21 -60 -48 -132 -60 -159 -12 -28 -27 -75 -34 -105
-12 -50 -65 -203 -97 -275 -32 -74 -48 -115 -70 -184 -13 -41 -33 -92 -43
-115 -54 -118 -126 -399 -136 -538 -7 -83 -6 -89 21 -135 15 -26 51 -73 81
-103 29 -30 59 -67 65 -83 7 -15 17 -27 21 -27 21 0 126 -105 147 -146 21 -43
22 -53 14 -138 -15 -162 -11 -214 23 -281 64 -127 204 -357 267 -438 l29 -39
-44 6 c-24 3 -78 8 -119 11 -165 13 -445 76 -583 132 -195 78 -263 121 -318
196 -16 22 -29 37 -29 33 0 -11 154 -321 206 -416 26 -47 64 -110 84 -140 20
-30 49 -75 64 -100 15 -25 49 -74 76 -110 27 -36 49 -69 49 -73 1 -12 137
-193 178 -237 18 -19 43 -49 55 -67 118 -166 524 -566 761 -750 23 -18 59 -47
81 -65 126 -106 531 -364 751 -479 140 -72 133 -69 305 -142 326 -138 423
-173 618 -222 56 -14 137 -36 180 -49 42 -13 122 -34 177 -46 55 -12 118 -25
140 -30 39 -9 174 -29 327 -49 240 -32 711 -43 979 -22 301 24 621 79 884 152
360 101 569 172 737 252 43 20 80 37 83 37 10 0 117 49 165 76 25 14 78 40
118 59 40 19 94 48 118 65 25 17 64 40 87 52 37 19 137 84 419 275 50 33 93
65 97 70 3 6 56 49 116 98 190 152 399 351 553 525 41 47 90 101 108 120 56
59 211 258 281 360 10 14 20 27 23 30 4 3 21 31 39 63 18 31 36 57 40 57 4 0
18 19 31 42 13 24 40 68 59 98 66 101 311 570 311 594 0 3 33 83 74 178 75
176 172 452 221 632 28 102 75 319 75 345 0 8 -24 -8 -53 -35 -29 -27 -72 -62
-96 -79 -23 -16 -64 -46 -90 -65 -164 -122 -288 -199 -474 -295 -238 -122
-486 -218 -627 -241 -14 -3 -49 -9 -79 -14 -81 -15 -213 -12 -252 4 -64 27
-330 179 -371 211 -25 21 -29 33 -73 250 -3 17 -10 49 -15 73 -14 63 -62 374
-58 376 2 1 20 14 40 29 20 15 39 27 42 27 3 0 31 17 63 38 84 56 111 72 183
110 36 19 88 49 115 67 28 18 82 48 120 67 39 19 106 54 150 77 44 24 105 56
135 72 30 16 69 38 85 49 17 10 49 28 72 40 59 30 130 96 154 142 11 22 23 61
26 86 6 57 -4 84 -154 390 -58 119 -128 264 -155 322 -167 350 -182 382 -347
703 -149 290 -198 337 -486 475 -224 108 -215 103 -239 135 -17 24 -21 49 -28
186 -7 144 -43 627 -68 906 -34 378 -42 454 -50 490 -6 22 -17 109 -25 194 -9
85 -21 164 -27 175 -43 84 -116 112 -333 127 -318 21 -478 57 -741 165 -44 18
-103 40 -130 49 -112 35 -150 48 -160 56 -6 5 -35 11 -66 15 l-56 7 -30 -41z
m2408 -7052 c-13 -8 -12 -10 5 -11 11 -1 27 0 34 1 13 1 13 -1 2 -14 -13 -16
-12 -17 11 -20 6 0 13 -7 16 -15 3 -10 0 -12 -11 -8 -11 4 -14 2 -10 -9 3 -10
0 -12 -10 -8 -8 3 -18 1 -22 -5 -3 -6 -1 -11 5 -11 6 0 8 -5 5 -10 -4 -6 -11
-8 -16 -5 -5 4 -16 2 -25 -3 -11 -6 -13 -11 -5 -16 16 -10 13 -26 -5 -26 -9 0
-18 -9 -21 -20 -3 -11 -11 -20 -19 -20 -7 0 -16 -11 -20 -25 -4 -15 -16 -28
-30 -31 -13 -3 -22 -10 -19 -15 5 -8 -34 -35 -45 -30 -3 1 -21 -12 -40 -29
-86 -76 -106 -90 -124 -90 -10 0 -29 -12 -42 -27 l-24 -28 32 -6 c22 -4 26 -7
13 -9 -11 -2 -24 -4 -30 -5 -20 -2 -70 -34 -55 -35 29 -1 -13 -20 -45 -20 -23
0 -27 -3 -15 -10 13 -9 13 -10 0 -10 -8 0 -28 -11 -44 -24 -18 -15 -36 -22
-49 -18 -14 3 -18 1 -13 -6 9 -16 -40 -34 -68 -27 -17 5 -18 4 -6 -5 12 -10
11 -11 -7 -7 -15 3 -20 1 -16 -9 3 -8 -3 -16 -13 -20 -11 -3 -46 -16 -79 -29
-88 -33 -111 -32 -123 8 -24 78 -62 276 -62 317 0 13 2 13 9 1 7 -11 13 -8 28
16 28 46 101 97 173 121 202 68 369 127 434 155 21 9 42 17 47 17 5 0 28 6 51
14 24 8 63 18 88 21 25 4 47 11 48 16 2 5 17 9 32 9 16 0 35 7 42 15 7 8 22
14 33 14 17 1 17 -1 5 -9z m-5365 -200 c-3 -5 -12 -10 -18 -10 -7 0 -6 4 3 10
19 12 23 12 15 0z m-99 -100 c21 0 24 -5 24 -35 l0 -35 -65 0 c-36 0 -65 2
-65 5 0 10 33 60 54 81 20 20 21 20 24 2 2 -12 12 -18 28 -18z m122 -32 c3
-27 1 -28 -37 -28 -39 0 -41 1 -41 31 0 29 2 30 38 27 32 -3 37 -7 40 -30z
m23 -5 c-10 -17 -10 -16 -11 3 0 23 13 41 18 25 2 -6 -1 -18 -7 -28z m-53 -85
c3 -36 2 -38 -27 -38 -30 0 -31 2 -31 41 0 38 1 40 28 37 23 -3 27 -8 30 -40z
m-78 -2 c0 -29 -17 -43 -33 -27 -6 6 -18 11 -26 10 -11 0 -10 -3 4 -9 15 -6
12 -8 -16 -7 -31 2 -35 5 -37 30 -2 26 -1 27 53 27 52 0 55 -1 55 -24z m5180
-6 c0 -5 -2 -10 -4 -10 -3 0 -8 5 -11 10 -3 6 -1 10 4 10 6 0 11 -4 11 -10z"/>
<path d="M7700 1820 c0 -5 5 -10 11 -10 5 0 7 5 4 10 -3 6 -8 10 -11 10 -2 0
-4 -4 -4 -10z"/>
<path d="M9179 7850 c-19 -23 -68 -83 -110 -133 -75 -92 -168 -234 -203 -314
-15 -34 -18 -58 -13 -120 7 -105 50 -196 132 -280 79 -82 100 -83 207 -13 89
59 152 127 173 189 16 48 19 180 6 246 -5 22 -22 103 -39 180 -17 77 -36 172
-44 210 -13 68 -14 70 -44 73 -27 3 -37 -3 -65 -38z"/>
<path d="M9362 4620 c-12 -12 -34 -38 -48 -58 -13 -20 -38 -55 -55 -77 -136
-180 -204 -321 -229 -477 -12 -71 -11 -84 15 -199 34 -154 41 -169 75 -169 46
0 102 50 135 121 17 35 33 66 36 69 3 3 16 43 28 90 12 47 25 94 28 105 15 56
22 134 22 266 1 92 7 175 17 223 10 49 12 86 7 102 l-8 25 -23 -21z"/>
</g>
</svg>
