
<svg viewBox="30.563 102.157 398.505 378.715" width="398.505" height="378.715">
  <path d="M 428.347 224.217 C 429.181 203.558 432.077 159.986 415.258 134.891 C 393.397 102.274 336.707 116.747 300.145 109.902 C 252.158 100.917 193.312 101.045 161.509 103.834 C 126.835 106.875 83.06 116.196 57.693 132.255 C 31.373 148.917 38.235 207.049 30.563 208.791 C 37.563 215.165 60.702 170.715 68.728 172.088 C 54.536 179.916 63.061 257.442 51.493 280.262 C 73.262 268.748 76.054 220.212 78.42 228.498 L 78.17 228.03 L 107.67 342.905 L 112.295 304.279 C 129.39 335.739 149.965 369.071 168.827 398.249 L 170.451 352.122 C 176.281 390.636 191.131 425.548 209.513 459.092 C 218.85 472.599 224.763 480.872 224.763 480.872 C 224.763 480.872 231.716 471.179 242.638 455.31 C 242.708 455.21 242.79 455.097 242.858 454.997 C 263.618 422.179 280.914 387.741 289.296 349.091 L 288.233 386.529 C 297.575 371.863 309.637 334.108 318.87 318.54 L 333.138 371.822 L 356.922 265.216 C 366.799 243.631 394.503 189.818 376.945 219.245 C 392.03 218.945 385.138 265.251 397.104 286.097 C 406.056 250.273 414.911 181.418 403.859 179.061 C 416.033 204.322 412.696 210.032 428.347 224.217 Z"></path>
</svg>